<svg width="70" height="70" viewBox="0 0 70 70" fill="none" xmlns="http://www.w3.org/2000/svg">
<path d="M41.8255 35.1299C43.6632 35.1299 45.1528 33.6402 45.1528 31.8026V28.6846H38.4983V31.8026C38.4983 33.6402 39.9879 35.1299 41.8255 35.1299Z" fill="#F2353F"/>
<path fill-rule="evenodd" clip-rule="evenodd" d="M23.9853 9.37268L23.7765 9.4402C19.7559 10.741 11.8661 13.3261 8.03022 14.583L7.82509 14.6502C6.62634 15.0439 5.83301 16.1552 5.83301 17.4152V28.2535C5.83301 30.1494 7.61509 31.5435 9.45551 31.0827L17.4997 29.0731V58.4268C17.4997 60.0368 18.8034 61.3434 20.4163 61.3434H49.583C51.1959 61.3434 52.4997 60.0368 52.4997 58.4268V29.0731L60.5438 31.0827C62.3843 31.5435 64.1663 30.1523 64.1663 28.2535V17.4152C64.1663 16.1552 63.373 15.0439 62.1713 14.6502C58.4207 13.4206 50.3164 10.7647 46.2228 9.44022L46.014 9.37269C44.6795 8.94132 43.8187 8.66718 43.7536 8.65644C43.751 8.65601 43.7497 8.65644 43.7497 8.65644C43.7497 9.51572 43.6259 10.3461 43.3951 11.1306L43.3874 11.1564C42.3119 14.771 38.9639 17.4064 34.9997 17.4064C31.0355 17.4064 27.6874 14.771 26.6119 11.1564L26.6043 11.1306C26.3735 10.3461 26.2497 9.51572 26.2497 8.65644C26.2497 8.65644 26.2483 8.65601 26.2457 8.65644C26.1807 8.66718 25.3199 8.94131 23.9853 9.37268ZM50.2599 13.3825C54.2219 14.6754 58.8259 16.1843 61.3925 17.0258C61.5535 17.0785 61.6663 17.2216 61.6663 17.4152V28.2535C61.6663 28.5269 61.412 28.7229 61.1511 28.6576L49.9997 25.8717V58.4268C49.9997 58.6577 49.8136 58.8434 49.583 58.8434H20.4163C20.1858 58.8434 19.9997 58.6577 19.9997 58.4268V25.8717L8.84827 28.6576C8.58907 28.7225 8.33301 28.5258 8.33301 28.2535V17.4152C8.33301 17.2207 8.4472 17.0776 8.60525 17.0253L8.81138 16.9578C11.4149 16.1047 15.8813 14.6413 19.739 13.3825C21.4217 12.8334 22.9869 12.3238 24.2305 11.921C25.6294 16.5424 29.9214 19.9064 34.9997 19.9064C40.078 19.9064 44.3699 16.5424 45.7688 11.921C47.0123 12.3238 48.5774 12.8334 50.2599 13.3825Z" fill="#F2353F"/>
</svg>
